<?xml version="1.0" encoding="utf-8"?>
<!-- Generator: Adobe Illustrator 27.5.0, SVG Export Plug-In . SVG Version: 6.00 Build 0)  -->
<svg version="1.1" id="Layer_1" xmlns="http://www.w3.org/2000/svg" xmlns:xlink="http://www.w3.org/1999/xlink" x="0px" y="0px"
	 viewBox="0 0 302 314" style="enable-background:new 0 0 302 314;" xml:space="preserve">
<g>
	<path style="opacity:0.7;fill:#F59CC4;" d="M122.213,108.071c-0.018-0.012-0.031-0.021-0.048-0.033
		c-0.023-0.018-0.048-0.033-0.07-0.05c0.077-0.579,0.123-1.163,0.104-1.751c0,0-11.163-8.777-26.643-14.739l0.002-0.001
		c-0.137-0.053-0.276-0.102-0.414-0.154c-0.814-0.311-1.641-0.61-2.479-0.902c-0.233-0.082-0.465-0.164-0.701-0.244
		c-0.415-0.141-0.834-0.277-1.254-0.414c-0.284-0.092-0.57-0.182-0.855-0.271c-0.408-0.127-0.814-0.254-1.227-0.376
		c-0.281-0.083-0.565-0.161-0.848-0.242c6.777-1.567,12.328-4.928,14.753-9.804l1.101,0.139c0,0,1.222,2.842,5.338,2.406
		c4.115-0.439,5.205-4.791,5.205-4.791s6.204,0.41,6.09-7.789c0,0,4.592-0.869,3.631-6.976c0,0,8.198-0.117,5.49-11.611
		c0,0,0.012-0.014,0.029-0.036c0.006-0.007,0.008-0.011,0.016-0.021c0.023-0.029,0.054-0.069,0.094-0.125
		c0.004-0.006,0.008-0.01,0.012-0.016c0.039-0.053,0.084-0.119,0.133-0.191c0.016-0.021,0.029-0.043,0.045-0.066
		c0.055-0.082,0.113-0.174,0.178-0.278c0.003-0.005,0.006-0.009,0.008-0.013c0.063-0.104,0.129-0.219,0.195-0.34
		c0.018-0.032,0.037-0.064,0.055-0.1c0.072-0.133,0.145-0.271,0.218-0.424c0.001-0.002,0.001-0.004,0.002-0.005
		c0.071-0.148,0.142-0.309,0.211-0.475c0.018-0.042,0.034-0.084,0.052-0.128c0.141-0.348,0.271-0.73,0.381-1.145
		c0.014-0.049,0.025-0.098,0.038-0.147c0.107-0.425,0.187-0.879,0.232-1.36c0.005-0.053,0.01-0.105,0.014-0.159
		c0.037-0.488,0.035-1.003-0.019-1.538c-0.006-0.058-0.012-0.117-0.02-0.177c-0.064-0.538-0.183-1.097-0.366-1.673
		c-0.021-0.067-0.044-0.135-0.067-0.203c-0.1-0.289-0.21-0.58-0.346-0.877c0,0,0-0.002-0.001-0.004c0,0.001,0.001,0.002,0.001,0.002
		c-0.803-1.759-2.26-3.637-4.719-5.52c0,0,4.731-7.844-6.985-10.762c0,0,2.932-4.733-1.457-12.35
		c-4.386-7.615-16.798-1.002-16.798-1.002s-1.547-6.592-8.217-6.717c-6.675-0.125-7.93,4.523-7.93,4.523s-3.944-7.299-11.459-5.332
		c-7.519,1.965-9.475,8.863-9.475,8.863s-2.932-6.037-9.094-3.869c-6.16,2.17-5.371,8.727-5.371,8.727s-5.898-4.039-8.398,1.322
		c-2.5,5.357,1.844,6.752,1.844,6.752s-11.93,2.234-7.859,13.783c0,0-3.344,0.162-5.963,4.758
		c-2.617,4.594,3.05,10.584,5.777,10.629c0,0-5.197,8.211,3.285,12.205c0,0,0.051,6.072,9.045,5.08l0.579,0.072
		c1.269,4.338,4.436,8.884,11.196,12.717c1.001,0.568,2.033,1.084,3.089,1.554c-2.786,0.163-6.7,0.483-10.611,1.098
		c-0.011,0.002-0.023,0.003-0.034,0.005c-3.067,0.484-6.129,1.148-8.633,2.066c-8.447,3.09-11.847,5.529-11.847,5.529
		s0.054,0.463,0.189,1.225c-1.118,0.621-2.617,1.483-4.323,2.536c-0.101,0.062-0.201,0.124-0.303,0.187
		c-0.346,0.215-0.698,0.438-1.059,0.667c-0.083,0.054-0.164,0.104-0.248,0.157c-0.444,0.285-0.897,0.58-1.359,0.887
		c-0.052,0.035-0.104,0.07-0.156,0.105c-0.408,0.271-0.821,0.553-1.238,0.839c-0.102,0.07-0.203,0.141-0.306,0.212
		c-0.449,0.311-0.901,0.63-1.354,0.957c-0.022,0.016-0.043,0.031-0.064,0.047c-0.49,0.354-0.979,0.717-1.469,1.088
		c-0.073,0.055-0.144,0.111-0.217,0.166c-0.418,0.318-0.833,0.643-1.246,0.973c-0.087,0.069-0.174,0.138-0.26,0.207
		c-0.953,0.767-1.887,1.563-2.785,2.381c-0.087,0.079-0.172,0.158-0.258,0.238c-0.383,0.354-0.758,0.711-1.125,1.072
		c-0.066,0.064-0.133,0.128-0.197,0.193c-0.428,0.426-0.843,0.855-1.242,1.291c-0.036,0.038-0.068,0.077-0.104,0.115
		c-0.35,0.385-0.684,0.771-1.009,1.162c-0.084,0.102-0.167,0.203-0.25,0.305c-0.311,0.385-0.609,0.771-0.892,1.162
		c-0.037,0.051-0.078,0.102-0.115,0.154c-0.312,0.438-0.602,0.877-0.872,1.319c-0.06,0.097-0.113,0.194-0.171,0.292
		c-0.205,0.35-0.397,0.7-0.573,1.052c-0.06,0.12-0.121,0.239-0.178,0.358c-0.208,0.442-0.401,0.885-0.559,1.328
		c-0.116,0.328-0.213,0.659-0.298,0.992c-0.027,0.103-0.048,0.209-0.071,0.313c-0.054,0.234-0.101,0.469-0.14,0.705
		c-0.02,0.118-0.037,0.236-0.053,0.354c-0.031,0.237-0.056,0.475-0.073,0.715c-0.009,0.105-0.018,0.211-0.024,0.317
		c-0.017,0.339-0.023,0.678-0.015,1.019c0,0.004,0,0.006,0,0.01c0.009,0.345,0.035,0.691,0.069,1.038
		c0.012,0.11,0.027,0.22,0.041,0.329c0.029,0.242,0.063,0.482,0.104,0.725c0.021,0.125,0.043,0.249,0.067,0.373
		c0.046,0.24,0.099,0.479,0.155,0.718c0.026,0.114,0.052,0.228,0.08,0.343c0.084,0.325,0.176,0.652,0.278,0.978
		c0.011,0.034,0.02,0.067,0.03,0.101c0.106,0.332,0.224,0.665,0.348,0.998c0.045,0.121,0.095,0.242,0.143,0.365
		c0.09,0.227,0.182,0.454,0.278,0.681c0.058,0.136,0.117,0.27,0.177,0.404c0.1,0.22,0.202,0.439,0.309,0.659
		c0.061,0.128,0.121,0.256,0.185,0.385c0.139,0.275,0.281,0.549,0.43,0.822c0.064,0.117,0.129,0.235,0.194,0.354
		c0.151,0.271,0.306,0.541,0.466,0.809c0.086,0.143,0.174,0.285,0.262,0.426c0.117,0.191,0.234,0.381,0.356,0.568
		c0.097,0.151,0.194,0.301,0.294,0.451c0.12,0.18,0.242,0.359,0.365,0.537c0.102,0.148,0.204,0.298,0.309,0.445
		c0.136,0.191,0.275,0.381,0.414,0.569c0.18,0.243,0.361,0.485,0.545,0.724c0.131,0.17,0.26,0.34,0.393,0.508
		c0.131,0.164,0.264,0.325,0.396,0.487c0.113,0.139,0.227,0.277,0.342,0.415c0.138,0.164,0.276,0.328,0.417,0.491
		c0.109,0.128,0.22,0.253,0.33,0.379c0.146,0.167,0.293,0.333,0.441,0.497c0.092,0.102,0.184,0.201,0.275,0.301
		c0.321,0.349,0.644,0.69,0.969,1.024c0.07,0.073,0.141,0.147,0.212,0.219c0.169,0.171,0.339,0.339,0.508,0.506
		c0.093,0.091,0.185,0.182,0.276,0.27c0.168,0.164,0.336,0.324,0.504,0.482c0.09,0.086,0.18,0.17,0.271,0.254
		c0.173,0.16,0.347,0.32,0.52,0.477c0.056,0.05,0.109,0.098,0.164,0.146c0.392,0.35,0.78,0.687,1.167,1.01
		c0.037,0.031,0.076,0.064,0.113,0.096c0.175,0.145,0.348,0.283,0.521,0.423c0.053,0.043,0.107,0.089,0.16,0.13c0,0,0,0,0-0.001
		c1.37,1.089,2.676,1.987,3.833,2.647c0.046,0.027,0.09,0.051,0.135,0.076c0.03,0.018,0.062,0.035,0.092,0.052
		c0,0.003,0,0.005,0.001,0.007c0,0-1.563,0.482-0.785,2.506c0.731,1.908,2.578,3.07,3.492,2.604
		c-0.576,3.031-0.986,6.232-1.147,9.578c0,0,0.001,0.021,0.002,0.061c0,0.021,0.002,0.053,0.002,0.088
		c0.002,0.031,0.002,0.059,0.004,0.1c0.001,0.053,0.004,0.117,0.006,0.188c0.002,0.035,0.002,0.066,0.004,0.105
		c0.004,0.096,0.008,0.201,0.013,0.322c0.001,0.012,0.001,0.025,0.002,0.037c0.032,0.777,0.098,2.025,0.227,3.666
		c0.001,0.002,0.002,0.002,0.002,0.002c0.541,6.859,2.177,20.369,7.066,33.021c6.924,17.93,8.894,27.477,8.571,30.045
		c-0.321,2.568-2.2,21.854,3.321,33.912c0,0,1.405,0.332,3.5,0.647c1.481,5.517,4.166,15.389,4.99,17.56
		c0.497,1.31-1.27,5.332-2.905,9.791c-1.835,5.006-3.493,10.555-1.616,13.438c0.068,0.105,0.137,0.209,0.215,0.307
		c0.061,0.076,0.126,0.15,0.193,0.221c0.104,0.113,0.217,0.219,0.336,0.318c0.061,0.051,0.117,0.104,0.182,0.15
		c0.194,0.145,0.402,0.279,0.635,0.393c7.166,3.523,14.451-0.902,12.768-12.16c-0.023-0.172-0.05-0.35-0.074-0.527
		c-1.201-8.098-2.447-17.947-2.341-25.402c0.01-0.678,0.031-1.336,0.063-1.973c0.003-0.045,0.005-0.092,0.008-0.139
		c0.031-0.578,0.076-1.131,0.129-1.67c0.008-0.086,0.014-0.178,0.023-0.264c0.007-0.06,0.018-0.115,0.023-0.176
		c0.019-0.004,0.035-0.012,0.053-0.016c0.339-0.096,0.67-0.199,0.989-0.318c0.054-0.02,0.104-0.041,0.157-0.063
		c0.335-0.129,0.661-0.27,0.969-0.43c0,0,0.003-0.119,0.008-0.328c0.006-0.186,0.012-0.441,0.021-0.779
		c0-0.029,0.002-0.066,0.002-0.098c0.01-0.336,0.02-0.738,0.033-1.199c0.008-0.305,0.018-0.629,0.027-0.984
		c0-0.016,0-0.029,0.001-0.045c0.003-0.117,0.007-0.246,0.011-0.371c0.011-0.398,0.023-0.82,0.036-1.273
		c0.065-2.24,0.151-5.113,0.26-8.41c0.003-0.07,0.005-0.139,0.007-0.209c0.014-0.393,0.026-0.791,0.039-1.195
		c0.001-0.018,0.002-0.033,0.002-0.049c0.043-1.289,0.09-2.635,0.139-4.023c0.001-0.033,0.002-0.066,0.004-0.1
		c0.015-0.428,0.029-0.859,0.046-1.295c0.001-0.045,0.003-0.088,0.005-0.133c0.033-0.949,0.069-1.918,0.106-2.898
		c0.001-0.008,0.001-0.014,0.002-0.02c0.037-0.994,0.075-2.002,0.115-3.021c0-0.002,0-0.004,0-0.006
		c0.561-14.313,1.376-30.816,2.402-39.59c0-0.004,0-0.006,0-0.006c0.037-0.313,0.073-0.613,0.109-0.902
		c0.001-0.004,0.002-0.008,0.002-0.012c0.037-0.289,0.073-0.566,0.11-0.836c0.001-0.004,0.002-0.01,0.003-0.016
		c0.037-0.268,0.074-0.523,0.111-0.77c0-0.004,0.002-0.008,0.002-0.012c0.037-0.244,0.075-0.479,0.113-0.701
		c0.001-0.006,0.002-0.012,0.003-0.018c0.038-0.221,0.075-0.43,0.114-0.629c0-0.006,0.002-0.012,0.003-0.018
		c0.038-0.195,0.075-0.379,0.114-0.551c0.002-0.01,0.004-0.02,0.006-0.029c0.038-0.168,0.076-0.324,0.113-0.469
		c0.003-0.01,0.006-0.02,0.008-0.029c0.035-0.129,0.069-0.248,0.104-0.357c0.619,0.088,1.248,0.164,1.879,0.23
		c1.099,0.084,2.194,0.119,3.25,0.092l0.316,0.039c0,0,0.618,26.484,6.603,37.705c5.988,11.221,12.789,33.875,12.789,33.875
		s0.717,0.125,1.869,0.227c2.212,3.949,7.636,13.721,9.028,17.008c0.72,1.701,2.101,5.615,3.952,9.613
		c2.672,5.777,6.324,11.723,10.391,11.435l0,0c0.017,0,0.035,0.004,0.055,0c6.909-0.584,10.434-7.752,3.051-16.449
		c-0.068-0.082-0.133-0.152-0.206-0.234c-7.24-8.459-10.839-8.867-11.205-12.719c-0.166-1.777-0.673-4.65-1.173-7.244
		c0-0.002,0.002-0.002,0.002-0.002c-0.246-1.272-0.489-2.475-0.691-3.451c0.319-0.164,0.635-0.338,0.943-0.527
		c0,0-2.309-16.873-4.519-25.785c0,0-0.778-1.967,0.138-8.385c0.909-6.416,5.703-33.752,8.686-38.146
		c2.977-4.391,5.269-17.24,5.177-22.799l0,0c0.032-1.404,0.033-3.541-0.126-6.084c0.61-0.342,1.213-0.859,1.67-1.529
		c1.219-1.789-0.185-2.617-0.185-2.617c0.855-1.943-0.087-2.814-0.385-3.029c0.299-0.23,0.702-0.549,1.192-0.945
		c0.018-0.016,0.033-0.027,0.052-0.043l0,0c4.041-3.286,13.611-11.795,16.45-20.758C139.338,121.11,126.113,110.842,122.213,108.071
		z M21.297,133.32c-0.021-0.02-0.041-0.04-0.061-0.059c-0.219-0.213-0.435-0.43-0.65-0.652c-0.04-0.041-0.08-0.083-0.119-0.125
		c-0.201-0.211-0.4-0.426-0.595-0.644c-0.037-0.042-0.074-0.082-0.11-0.124c-0.46-0.521-0.898-1.063-1.303-1.622
		c-0.013-0.019-0.025-0.037-0.038-0.056c-0.179-0.248-0.349-0.502-0.513-0.757c-0.047-0.071-0.09-0.145-0.135-0.218
		c-0.128-0.207-0.25-0.416-0.367-0.626c-0.049-0.087-0.096-0.173-0.142-0.261c-0.11-0.209-0.212-0.42-0.31-0.632
		c-0.038-0.083-0.077-0.164-0.113-0.247c-0.116-0.266-0.222-0.534-0.314-0.805c-0.009-0.027-0.021-0.053-0.03-0.079
		c-0.1-0.298-0.185-0.599-0.256-0.901c-0.017-0.08-0.029-0.159-0.047-0.238c-0.045-0.222-0.085-0.443-0.113-0.668
		c-0.014-0.105-0.022-0.213-0.031-0.32c-0.018-0.201-0.029-0.403-0.031-0.606c-0.002-0.112-0.002-0.224,0.001-0.337
		c0.006-0.211,0.024-0.424,0.048-0.635c0.012-0.101,0.018-0.199,0.033-0.3c0.048-0.311,0.109-0.622,0.198-0.935
		c0.094-0.332,0.216-0.661,0.351-0.99c0.039-0.098,0.086-0.195,0.129-0.293c0.108-0.238,0.223-0.477,0.35-0.713
		c0.053-0.1,0.105-0.199,0.161-0.298c0.16-0.282,0.333-0.562,0.518-0.839c0.026-0.041,0.05-0.082,0.077-0.121
		c0.217-0.318,0.452-0.635,0.698-0.947c0.066-0.084,0.139-0.168,0.207-0.252c0.19-0.232,0.387-0.465,0.592-0.694
		c0.084-0.093,0.167-0.187,0.253-0.28c0.229-0.248,0.465-0.493,0.708-0.736c0.055-0.055,0.107-0.111,0.164-0.166
		c0.305-0.3,0.619-0.595,0.941-0.886c0.068-0.062,0.139-0.122,0.208-0.183c0.261-0.231,0.526-0.46,0.796-0.686
		c0.095-0.08,0.19-0.158,0.287-0.237c0.275-0.226,0.555-0.449,0.838-0.669c0.067-0.053,0.133-0.105,0.201-0.157
		c0.358-0.274,0.721-0.545,1.086-0.81c0.038-0.027,0.076-0.054,0.115-0.081c0.324-0.233,0.65-0.462,0.977-0.686
		c0.09-0.062,0.179-0.122,0.268-0.182c0.297-0.2,0.593-0.397,0.889-0.59c0.072-0.048,0.146-0.097,0.219-0.144
		c0.369-0.238,0.736-0.471,1.1-0.695c0.007-0.004,0.014-0.008,0.02-0.012c0.345-0.212,0.684-0.416,1.019-0.615
		c0.108-0.064,0.215-0.127,0.321-0.189c0.233-0.137,0.464-0.271,0.692-0.4c0.123-0.071,0.248-0.143,0.37-0.213
		c0.198-0.111,0.393-0.219,0.585-0.326c0.334-0.186,0.66-0.363,0.974-0.531c0,0,0.001,0.001,0.001,0.002
		c0.536-0.287,1.03-0.544,1.492-0.779c0.048,0.092,0.1,0.182,0.15,0.272c0.105,0.196,0.21,0.392,0.322,0.585
		c0.141,0.242,0.291,0.479,0.441,0.715c0.113,0.181,0.221,0.363,0.34,0.541c0.274,0.406,0.56,0.809,0.864,1.197l5.654-2.049
		c-0.836,1.355-1.568,2.85-2.08,4.488c-0.019,0.061-0.037,0.121-0.06,0.18c0.003-0.01,0.007-0.02,0.011-0.029
		c-1.027,2.961-1.759,6.89-0.34,10.451c0,0-3.996,5.164-7.68,13.768c-0.017-0.021-2.149-2.663-3.59-1.545
		c-0.986,0.77-0.998,2.311-0.907,3.205c-0.185-0.121-0.378-0.249-0.588-0.392c-0.005-0.004-0.011-0.007-0.016-0.011
		c-0.156-0.106-0.32-0.22-0.488-0.338c-0.714-0.5-1.526-1.102-2.376-1.792C22.818,134.717,22.049,134.046,21.297,133.32z
		 M27.049,150.13l0.008,0.002c-0.001,0.004-0.002,0.006-0.002,0.01C27.053,150.139,27.049,150.13,27.049,150.13z M117.735,141.481
		L117.735,141.481c-0.384,0.341-0.726,0.635-1.022,0.887c-1.23,0.027-2.697,1.17-2.697,1.17c0.012,0.063,0.005,0.139,0.012,0.204
		c-0.166-0.388-0.33-0.778-0.512-1.155c0,0-0.933-12.086-4.313-16.959c0,0,2.548-6.061,2.027-10.814l6.036,3.117
		c0,0,0.013-0.015,0.035-0.041c0.014-0.016,0.027-0.031,0.053-0.063c0.017-0.02,0.034-0.039,0.055-0.064
		c0.166-0.199,0.473-0.581,0.861-1.115c0.091,0.076,0.186,0.156,0.281,0.238c0.142,0.119,0.287,0.246,0.439,0.379
		c0.141,0.123,0.281,0.246,0.431,0.379c0.104,0.095,0.215,0.197,0.324,0.297c2.545,2.332,5.936,6.014,6.756,9.701
		C127.5,132.112,121.163,138.441,117.735,141.481z"/>
	<path style="opacity:0.7;fill:#F59CC4;" d="M299.173,65.223c0,0,0-2.104-1.475-2.002c0,0-0.527-1.367-2.214-1.264
		c-1.684,0.105-3.159,1.369-3.159,1.369s-0.42-1.051-2.317-0.525c-1.896,0.525-10.533,6.951-12.746,9.693l-1.993,0.496
		c-0.154-0.167-0.258-0.262-0.267-0.27c-0.183-0.438-0.422-1.394-0.059-3.072c0.527-2.424-1.578-4.215-2.527-4.426
		c-0.948-0.209-1.263,0.74-0.737,3.055c0.526,2.318-4.319,9.061-0.211,12.221c0,0-5.642,19.578-5.478,27.387
		c0,0-9.466-4.198-15.65-8.811l0,0c-0.531-0.396-1.042-0.795-1.517-1.195c-0.063-0.053-0.128-0.105-0.191-0.158l0.198-0.322
		c0,0,0,0-6-4.75c-9.22-7.035-21.512-5.846-22.229-5.77c-0.023,0.003-0.033,0.004-0.033,0.004c-0.001-0.005-0.002-0.01-0.003-0.016
		c-0.027-0.166-0.04-0.347-0.041-0.535c0-0.008,0-0.017,0-0.025c0-0.191,0.011-0.391,0.03-0.592c0-0.006,0.001-0.01,0.001-0.016
		c0.02-0.205,0.049-0.412,0.083-0.614c0,0,0.001-0.003,0.001-0.005c0.03-0.178,0.064-0.349,0.101-0.516
		c8.686-0.396,16.47-3.898,19.323-9.908l0.966,0.127c0,0,1.073,2.615,4.689,2.215c3.614-0.404,4.572-4.41,4.572-4.41
		s5.448,0.377,5.35-7.168c0,0,4.032-0.803,3.187-6.424c0,0,7.203-0.107,4.824-10.686c0,0,0.01-0.012,0.024-0.031
		c0.006-0.008,0.008-0.012,0.017-0.023c0.022-0.027,0.048-0.064,0.083-0.115c0.003-0.004,0.005-0.006,0.007-0.01
		c0.033-0.049,0.074-0.109,0.118-0.178c0.013-0.02,0.025-0.039,0.039-0.062c0.047-0.074,0.097-0.155,0.15-0.247
		c0.006-0.01,0.012-0.02,0.018-0.029c0.053-0.092,0.108-0.193,0.166-0.301c0.017-0.032,0.033-0.065,0.05-0.098
		c0.062-0.119,0.125-0.245,0.188-0.383c0.002-0.005,0.005-0.01,0.007-0.015c0.061-0.134,0.122-0.278,0.182-0.429
		c0.016-0.041,0.032-0.08,0.048-0.122c0.061-0.16,0.121-0.325,0.178-0.501c0.001-0.004,0.002-0.008,0.003-0.012
		c0.055-0.17,0.104-0.352,0.151-0.536c0.013-0.048,0.023-0.095,0.035-0.142c0.047-0.194,0.09-0.395,0.124-0.603v-0.002
		c0.034-0.205,0.059-0.419,0.078-0.637c0.005-0.053,0.01-0.106,0.014-0.16c0.016-0.225,0.026-0.451,0.024-0.688
		c0-0.002,0-0.004,0-0.004c-0.002-0.231-0.018-0.469-0.04-0.709c-0.006-0.06-0.013-0.119-0.02-0.18
		c-0.028-0.246-0.064-0.496-0.117-0.752c-0.001-0.006-0.003-0.011-0.004-0.016c-0.052-0.248-0.12-0.5-0.197-0.754
		c-0.021-0.068-0.042-0.137-0.064-0.205c-0.087-0.262-0.182-0.524-0.298-0.792c-0.002-0.003-0.002-0.007-0.004-0.011
		c0,0.002,0.001,0.004,0.001,0.005c-0.704-1.62-1.984-3.349-4.146-5.083c0,0,4.157-7.219-6.135-9.906c0,0,2.575-4.355-1.281-11.365
		c-3.851-7.01-14.755-0.924-14.755-0.924s-1.358-6.066-7.217-6.182c-5.862-0.115-6.965,4.162-6.965,4.162s-3.466-6.715-10.066-4.906
		c-6.604,1.809-8.321,8.158-8.321,8.158s-2.576-5.557-7.989-3.563c-5.411,1.998-4.717,8.033-4.717,8.033s-5.182-3.717-7.379,1.217
		c-2.195,4.93,1.621,6.215,1.621,6.215s-10.479,2.057-6.904,12.686c0,0-2.938,0.15-5.237,4.379
		c-2.298,4.228,2.679,9.742,5.076,9.783c0,0-4.566,7.557,2.885,11.234c0,0,0.044,5.588,7.944,4.676l0.509,0.066
		c1.113,3.992,3.895,8.178,9.835,11.705c3.461,2.057,7.348,3.404,11.301,4.096c0.007,0.045,0.013,0.094,0.02,0.145
		c0.003,0.023,0.006,0.049,0.01,0.074c0.006,0.058,0.013,0.119,0.019,0.18c0.003,0.031,0.006,0.063,0.009,0.094
		c0.006,0.061,0.01,0.125,0.014,0.189c0.003,0.034,0.005,0.068,0.006,0.104c0.004,0.066,0.006,0.133,0.008,0.199
		c0,0.035,0,0.07,0.001,0.106c0,0.068-0.001,0.138-0.003,0.207c-0.001,0.035-0.003,0.07-0.005,0.106
		c-0.003,0.068-0.008,0.137-0.015,0.205c-0.003,0.035-0.008,0.068-0.012,0.104c-0.009,0.066-0.018,0.133-0.029,0.198
		c-0.006,0.034-0.015,0.066-0.021,0.1c-0.014,0.063-0.028,0.126-0.046,0.187c-0.009,0.031-0.021,0.058-0.031,0.088
		c-0.021,0.06-0.041,0.119-0.066,0.174c-0.012,0.024-0.025,0.045-0.038,0.068c-0.029,0.055-0.059,0.111-0.094,0.16
		c-0.007,0.009-0.016,0.016-0.022,0.023c-0.094,0.123-0.208,0.223-0.349,0.289h0.001h-0.001l0,0
		c-0.447-0.098-0.893-0.166-1.336-0.222c-0.047-0.006-0.094-0.009-0.141-0.015c-11.434-1.332-21.218,10.334-21.218,10.334
		l0.573,0.596c-0.376,0.32-0.751,0.643-1.126,0.967h-0.001l0,0c-6.357,5.5-12.501,11.6-12.005,14.02
		c0.744,3.643,8.768,16.189,12.227,21.501l-0.001,0.001c0.198,0.305,0.377,0.578,0.542,0.831c-0.013,0.37,0.021,0.785,0.134,1.263
		c0,0-2.369,1.688-0.684,4.635c0,0-1.789,1.213,0.054,2.791c1.253,1.074,3.452,1.23,4.684,0.604c-0.761,1.936-1.6,4.813-1.929,8.615
		c-0.002,0.016-0.004,0.029-0.005,0.045l0.001-0.002c-0.268,3.131-0.196,6.863,0.566,11.227
		c2.634,15.061,14.329,41.818,17.172,57.936c0.937,5.31,2.686,14.271,4.61,23.9c0.269,0.057,0.542,0.092,0.813,0.135
		c0.028,0.146,0.056,0.285,0.085,0.436c0.006,0.025,0.012,0.055,0.017,0.082c0.785,3.973,1.815,9.068,2.495,12.615
		c1.364,7.129,2.742,13.877,3.777,21.055c0.446,3.094,1.22,5.436,0.864,7.928c-0.171,1.197-0.603,2.43-1.455,3.797
		c-1.74,2.787-2.9,4.934-5.388,7.154c-0.14,0.127-0.269,0.223-0.378,0.287c-1.829,1.014-5.851,2.426-6.055,4.768
		c0,0.006-0.002,0.01-0.002,0.014c-0.014,0.168-0.011,0.34,0.018,0.518c0,0,1.547,1.828,6.039,1.686
		c4.493-0.137,9.079-1.262,9.315-3.369c0.169-1.52-0.064-4.721,1.741-6.967c0.395,1.619,1.124,4.859,1.022,6.404l1.263-0.418
		l0.843-8.01c0,0,0.019-0.051,0.044-0.127c0.002-0.006,0.004-0.01,0.006-0.016c0.118-0.361,0.418-1.459,0.383-3.291
		c-0.015-0.879-3.989-36.625-5.071-45.438c0.211-0.061,0.422-0.117,0.632-0.184c-0.924-7.104-1.911-13.355-2.873-17.063
		c0,0-2.845-7.688-2.212-9.268c0.63-1.578,0.63-2.131-0.633-3.803c-1.264-1.674-9.482-47.496-7.27-56.029
		c0,0,2.001,0.211,3.898-0.527c0,0,14.009,36.34,19.276,58.256c1.719,7.15,3.797,17.006,5.817,27.039
		c0.343,0.07,0.688,0.121,1.035,0.172l0.318,1.676l0,0l7.584,39.895c0,0,0.279,6.951,0.494,9.689
		c0.019,0.264,0.015,0.58,0.009,0.912v0.01l0.002-0.01l-0.002,0.018c-0.004,0.029-0.011,0.172-0.015,0.392
		c-0.109,2.35-0.598,5.902,0.158,8.162c-0.001-0.002-0.003-0.002-0.004-0.004c0.005,0.014,0.012,0.027,0.017,0.041
		c0.061,0.18,0.133,0.352,0.212,0.514c0.017,0.033,0.031,0.066,0.048,0.1c0.077,0.147,0.164,0.283,0.258,0.412
		c0.028,0.039,0.054,0.08,0.083,0.115c0.093,0.117,0.198,0.219,0.308,0.316c0.037,0.033,0.07,0.072,0.11,0.103
		c0.152,0.119,0.317,0.225,0.501,0.305c3.161,1.396,10.674,0.342,9.478-3.941c-0.345-1.246-1.004-2.996-1.764-4.908
		c-1.859-4.666-4.609-10.307-4.614-12.162c-0.037-15.627-2.445-33.389-3.503-40.451l0,0c-0.106-0.709-0.198-1.305-0.273-1.787
		c0.196-0.051,0.394-0.094,0.589-0.15c-0.408-2.861-0.799-5.311-1.152-7.076c-2.209-11.064-6.422-16.117-5.793-17.17
		c0.635-1.057-0.737-2.109-1.16-2.422c-0.419-0.318-4.423-33.814-5.16-39.082c-0.485-3.479-2.143-15.326-3.813-24.398
		c-0.004-0.024-0.008-0.049-0.013-0.072c-0.05-0.268-0.1-0.533-0.148-0.797c-0.004-0.021-0.008-0.043-0.013-0.064
		c-0.09-0.479-0.18-0.951-0.27-1.41c-0.001-0.002-0.001-0.006-0.002-0.01c-0.026-0.137-0.054-0.266-0.08-0.4
		c-0.137-0.686-0.272-1.35-0.406-1.977c-0.001-0.005-0.002-0.01-0.003-0.014c-0.018-0.079-0.034-0.154-0.051-0.232
		c-0.215-0.992-0.426-1.9-0.631-2.694v-0.001c-0.003-0.01-0.005-0.018-0.008-0.027c-0.063-0.248-0.128-0.49-0.19-0.716
		c-0.001-0.003-0.002-0.007-0.003-0.011c-0.064-0.225-0.125-0.434-0.186-0.633c0,0-0.001-0.002-0.001-0.003
		c-0.046-0.15-0.091-0.284-0.136-0.42c-0.002-0.005-0.004-0.011-0.005-0.015c0.021-0.01,0.04-0.018,0.061-0.027
		c0,0-0.016-0.034-0.041-0.088c0.029-0.014,0.058-0.023,0.087-0.037c0,0-3.898-8.428-4.002-10.955
		c-0.102-2.402,0.75-14.799,0.834-16.011c4.909-2.689,5.886-6.885,5.704-10.271c-0.005-0.194,0.004-0.377-0.01-0.578
		c-0.041-0.621-0.156-1.203-0.299-1.771c-0.387-1.867-0.976-3.131-0.976-3.131l9.261,5.254l0.618-1
		c0.011,0.007,0.023,0.014,0.034,0.02c0.301,0.174,0.602,0.347,0.908,0.521l0,0c9.862,5.635,22.725,12.326,25.381,10.557
		c4.423-2.949,6.318-32.969,6.318-32.969s3.899-0.213,8.007-3.16c4.106-2.953,9.163-7.902,10.85-9.588
		C297.381,68.596,300.119,65.645,299.173,65.223z M183.934,111.255c0.645-0.539,5.531-4.381,10.153-8.008
		c0.21-0.166,0.421-0.33,0.63-0.494l0.862,0.896c0,0,0,0,6.155-4.346c0,0-0.051,0.064-0.121,0.156
		c-2.181,2.746-3.176,5.107-3.456,7.1c-0.286,1.379-0.304,2.789,0.208,4.066c1.895,4.738,4.156,3.279,3.527,5.807
		c-0.355,1.416-2.838,9.526-4.955,16.395c-0.851-0.786-4.057-3.623-5.177-2.836c-0.116-0.233-0.233-0.468-0.356-0.717l0,0
		C188.275,122.954,183.036,112.003,183.934,111.255z M275.006,72.727c0.07,0.097,0.124,0.188,0.188,0.281l-0.039,0.01
		C275.155,73.018,275.086,72.919,275.006,72.727z"/>
	<polygon style="opacity:0.7;fill:#F59CC4;" points="175.673,158.702 157.449,142.051 156.951,152.122 137.397,152.196 
		137.397,152.194 137.017,152.196 136.689,167.483 156.368,167.194 156.338,178.079 177.376,160.257 175.674,158.7 	"/>
</g>
</svg>
